# xmcd
#
# Track frame offsets:
#	150
#	13748
#	31045
#	47040
#	64089
#	84079
#	102663
#	122596
#	140521
#	172724
#	185350
#	200314
#	220281
#	254830
#	273263
#	290242
#	312829
#
# Disc length: 4435 seconds
#
# Revision: 1
# Processed by: cddbd v1.5.2PL0 Copyright (c) Steve Scherf et al.
# Submitted via: audiograbber 1.83.01
#
DISCID=f4115111
DTITLE=The Animals with Sonny Boy Williamson - THE ANIMALS WITH SONNY BOY WILLI
DTITLE=AMSON
DYEAR=1988
DGENRE=
TTITLE0=Sonny's Slow Walk
TTITLE1=Pontiac Blues
TTITLE2=My Babe
TTITLE3=I Don't Care No More
TTITLE4=Baby Don't You Worry
TTITLE5=Nighttime Is The Right Time
TTITLE6=I'm Gonna Put You Down
TTITLE7=Fattening Frogs For Snakes
TTITLE8=Nobody But You
TTITLE9=Bye Bye Sonny Bye Bye
TTITLE10=Let It Rock
TTITLE11=Gotta Find My Baby
TTITLE12=Bo Diddley
TTITLE13=Almost Grown
TTITLE14=Dimples
TTITLE15=Boom Boom
TTITLE16=C Jam Blues
EXTD=
EXTT0=
EXTT1=
EXTT2=
EXTT3=
EXTT4=
EXTT5=
EXTT6=
EXTT7=
EXTT8=
EXTT9=
EXTT10=
EXTT11=
EXTT12=
EXTT13=
EXTT14=
EXTT15=
EXTT16=
PLAYORDER=
